<?xml version="1.0" encoding="iso-8859-1"?>
<!-- Generator: Adobe Illustrator 19.0.0, SVG Export Plug-In . SVG Version: 6.00 Build 0)  -->
<svg version="1.1" id="Layer_1" xmlns="http://www.w3.org/2000/svg" xmlns:xlink="http://www.w3.org/1999/xlink" x="0px" y="0px"
	 viewBox="0 0 511.989 511.989" style="enable-background:new 0 0 511.989 511.989;" xml:space="preserve">
<g>
	<path style="fill:#ED5564;" d="M10.664,74.667C4.773,74.667,0,79.448,0,85.339v287.095c0,5.906,4.773,10.688,10.664,10.688
		s10.672-4.781,10.672-10.688V85.339C21.336,79.449,16.555,74.667,10.664,74.667z"/>
	<path style="fill:#ED5564;" d="M501.333,74.667c-5.906,0-10.687,4.781-10.687,10.672v287.095c0,5.906,4.78,10.688,10.687,10.688
		c5.875,0,10.656-4.781,10.656-10.688V85.339C511.989,79.449,507.208,74.667,501.333,74.667z"/>
</g>
<path style="fill:#656D78;" d="M447.678,477.337l-42.561-212.768c-1-4.984-5.375-8.562-10.469-8.562H117.334
	c-5.086,0-9.469,3.578-10.46,8.562l-42.671,213.33c-0.625,3.125,0.187,6.375,2.21,8.844c2.031,2.469,5.055,3.906,8.25,3.906h362.671
	l0,0c5.891,0,10.672-4.75,10.672-10.656C448.006,479.087,447.896,478.181,447.678,477.337z"/>
<g>
	<polygon style="fill:#E6E9ED;" points="277.338,490.649 234.66,490.649 245.331,256.007 266.658,256.007 	"/>
	<path style="fill:#E6E9ED;" d="M501.333,21.34H10.664C4.773,21.34,0,26.106,0,32.012v127.997c0,5.891,4.773,10.656,10.664,10.656
		h490.668c5.875,0,10.656-4.766,10.656-10.656V32.012C511.989,26.106,507.208,21.34,501.333,21.34z"/>
</g>
<g>
	<rect x="85.335" y="21.34" style="fill:#434A54;" width="85.33" height="74.67"/>
	<rect x="170.665" y="96.015" style="fill:#434A54;" width="85.33" height="74.66"/>
	<path style="fill:#434A54;" d="M0.001,96.011v63.999c0,5.891,4.773,10.656,10.664,10.656h74.67V96.011H0.001z"/>
	<rect x="255.995" y="21.34" style="fill:#434A54;" width="85.34" height="74.67"/>
	<rect x="341.335" y="96.015" style="fill:#434A54;" width="85.31" height="74.66"/>
	<path style="fill:#434A54;" d="M511.989,96.011V32.012c0-5.906-4.781-10.672-10.656-10.672h-74.686v74.67L511.989,96.011
		L511.989,96.011z"/>
</g>
<g>
</g>
<g>
</g>
<g>
</g>
<g>
</g>
<g>
</g>
<g>
</g>
<g>
</g>
<g>
</g>
<g>
</g>
<g>
</g>
<g>
</g>
<g>
</g>
<g>
</g>
<g>
</g>
<g>
</g>
</svg>
